<svg width="200" height="215" viewBox="0 0 200 215" fill="none" xmlns="http://www.w3.org/2000/svg">
<g clip-path="url(#clip0_61_9143)">
<path d="M48.0472 29.9062L69.3972 66.6059C64.0786 70.234 59.1309 74.3525 55.0881 79.3879C34.3362 105.223 39.5949 143.187 66.5744 162.312C91.9392 180.293 126.909 174.827 145.607 150.176C165.817 123.539 158.904 85.0135 130.883 67.1361L130.584 66.6378L151.703 29.9661C152.01 29.7707 153.146 30.592 153.481 30.7953C175.39 43.9243 192.298 68.711 197.664 93.5894C210.945 155.167 166.044 213.061 103.198 215.143C38.1118 217.296 -11.641 157.44 2.381 93.6173C8.16603 67.2836 25.0985 43.8645 48.0472 29.9062Z" fill="#004595"/>
<path d="M147.919 0L99.9128 83.0675L52.293 0H147.919Z" fill="#E5312A"/>
</g>
<defs>
<clipPath id="clip0_61_9143">
<rect width="200" height="215" fill="white"/>
</clipPath>
</defs>
</svg>
